<svg width="14px" height="16px" viewBox="0 0 16 18" version="1.1" xmlns="http://www.w3.org/2000/svg" xmlns:xlink="http://www.w3.org/1999/xlink">
    <title>d</title>
    <desc>Created with Sketch.</desc>
    <g id="Page-1" stroke="none" stroke-width="1" fill="none" fill-rule="evenodd">
        <g id="Artboard-3" transform="translate(-415.000000, -628.000000)" fill="#FFFFFF" fill-rule="nonzero">

            <path d="M423,641.5 C423.083333,641.5 423.173611,641.465278 423.270833,641.395833 L423.270833,641.395833 L430.770833,633.895833 C430.881944,633.784722 430.909722,633.645833 430.854167,633.479167 C430.784722,633.326389 430.666667,633.25 430.5,633.25 L430.5,633.25 L426.375,633.25 L426.375,628.375 C426.375,628.263889 426.340278,628.173611 426.270833,628.104167 C426.201389,628.034722 426.111111,628 426,628 L426,628 L420,628 C419.888889,628 419.798611,628.034722 419.729167,628.104167 C419.659722,628.173611 419.625,628.263889 419.625,628.375 L419.625,628.375 L419.625,633.25 L415.5,633.25 C415.333333,633.25 415.215278,633.326389 415.145833,633.479167 C415.090278,633.645833 415.118056,633.784722 415.229167,633.895833 L415.229167,633.895833 L422.729167,641.395833 C422.826389,641.465278 422.916667,641.5 423,641.5 Z M430.5,646 C430.611111,646 430.701389,645.965278 430.770833,645.895833 C430.840278,645.826389 430.875,645.736111 430.875,645.625 L430.875,645.625 L430.875,643.375 C430.875,643.263889 430.840278,643.173611 430.770833,643.104167 C430.701389,643.034722 430.611111,643 430.5,643 L430.5,643 L415.5,643 C415.388889,643 415.298611,643.034722 415.229167,643.104167 C415.159722,643.173611 415.125,643.263889 415.125,643.375 L415.125,643.375 L415.125,645.625 C415.125,645.736111 415.159722,645.826389 415.229167,645.895833 C415.298611,645.965278 415.388889,646 415.5,646 L415.5,646 L430.5,646 Z" id="d"></path>
        </g>
    </g>
</svg>

