<svg width="114px" height="42px" viewBox="0 0 114 42" version="1.1" xmlns="http://www.w3.org/2000/svg" xmlns:xlink="http://www.w3.org/1999/xlink">
    <!-- Generator: Sketch 50 (54983) - http://www.bohemiancoding.com/sketch -->
    <title>Learn.adacore.com</title>
    <desc>Created with Sketch.</desc>
    <defs></defs>
    <g id="Page-1" stroke="none" stroke-width="1" fill="none" fill-rule="evenodd">
        <g id="Artboard" transform="translate(-224.000000, -42.000000)" fill="#FFFFFF">
            <g id="Logo-Copy" transform="translate(73.000000, 34.000000)">
                <g id="Learn.adacore.com" transform="translate(151.000000, 8.000000)">
                    <path d="M1.532,0.696 L7.956,0.696 L7.956,24.06 L16.448,24.06 L16.448,30 L1.532,30 L1.532,0.696 Z M19.572,0.696 L35.456,0.696 L35.456,6.548 L25.864,6.548 L25.864,12.268 L33.256,12.268 L33.256,17.9 L25.864,17.9 L25.864,24.148 L35.5,24.148 L35.5,30 L19.572,30 L19.572,0.696 Z M52.44,30 L51.34,24.72 L44.388,24.72 L43.288,30 L37.348,30 L44.212,0.564 L51.912,0.564 L58.732,30 L52.44,30 Z M47.864,8.132 L45.444,19.748 L50.328,19.748 L47.952,8.132 L47.864,8.132 Z M67.928,19.44 L67.928,30 L61.504,30 L61.504,0.696 L71.624,0.696 C76.684,0.696 79.676,3.688 79.676,8.396 L79.676,11.74 C79.676,14.864 78.312,17.24 75.98,18.472 L80.336,30 L73.692,30 L69.776,19.44 L67.928,19.44 Z M67.928,5.844 L67.928,14.336 L70.128,14.336 C72.284,14.336 73.208,13.236 73.208,11.256 L73.208,8.968 C73.208,6.944 72.284,5.844 70.128,5.844 L67.928,5.844 Z M83.372,0.696 L89.752,0.696 L96.88,18.032 L96.968,18.032 L96.88,0.696 L102.468,0.696 L102.468,30 L96.22,30 L88.96,12.444 L88.872,12.444 L88.96,30 L83.372,30 L83.372,0.696 Z" id="LEARN"></path>
                    <path d="M5.98999976,41 L5.62999976,39.94 L3.09999976,39.94 L2.73999976,41 L0.849999762,41 L3.31999976,34.32 L5.54999976,34.32 L8.01999976,41 L5.98999976,41 Z M4.35999976,36.28 L3.54999976,38.63 L5.17999976,38.63 L4.37999976,36.28 L4.35999976,36.28 Z M12.4999998,34.34 L15.5799998,34.34 C17.7099998,34.34 18.7199998,35.53 18.7199998,37.24 L18.7199998,38.18 C18.7199998,39.9 17.6999998,41 15.5799998,41 L12.4999998,41 L12.4999998,34.34 Z M14.4699998,35.91 L14.4699998,39.43 L15.4499998,39.43 C16.3099998,39.43 16.7499998,38.83 16.7499998,37.96 L16.7499998,37.37 C16.7499998,36.51 16.3099998,35.91 15.4499998,35.91 L14.4699998,35.91 Z M27.9199999,41 L27.5599999,39.94 L25.0299999,39.94 L24.6699999,41 L22.7799999,41 L25.2499999,34.32 L27.4799999,34.32 L29.9499999,41 L27.9199999,41 Z M26.2899999,36.28 L25.4799999,38.63 L27.1099999,38.63 L26.3099999,36.28 L26.2899999,36.28 Z M37.2499999,34.19 C39.1699999,34.19 40.2199999,35.2 40.2199999,36.61 L40.2199999,36.81 L38.3099999,36.81 L38.3099999,36.6 C38.3099999,36.15 37.8899999,35.77 37.2499999,35.77 C36.3299999,35.77 35.9499999,36.46 35.9499999,37.31 L35.9499999,38.02 C35.9499999,38.82 36.3299999,39.57 37.2499999,39.57 C37.8899999,39.57 38.3099999,39.19 38.3099999,38.74 L38.3099999,38.53 L40.2199999,38.53 L40.2199999,38.73 C40.2199999,40.12 39.1199999,41.15 37.2299999,41.15 C35.1799999,41.15 33.9799999,39.91 33.9799999,38.04 L33.9799999,37.3 C33.9799999,35.43 35.2499999,34.19 37.2499999,34.19 Z M48,34.18 C49.97,34.18 51.31,35.36 51.31,37.24 L51.31,38.1 C51.31,39.98 49.97,41.16 48,41.16 C46.03,41.16 44.69,39.98 44.69,38.1 L44.69,37.24 C44.69,35.36 46.03,34.18 48,34.18 Z M48,35.76 C47.21,35.76 46.66,36.24 46.66,37.29 L46.66,38.04 C46.66,39.1 47.21,39.57 48,39.57 C48.8,39.57 49.33,39.1 49.33,38.04 L49.33,37.29 C49.33,36.24 48.8,35.76 48,35.76 Z M58.1,38.79 L58.1,41 L56.13,41 L56.13,34.34 L59.73,34.34 C61.17,34.34 62.08,35.1 62.08,36.36 L62.08,36.74 C62.08,37.65 61.62,38.3 60.83,38.6 L62.33,41 L60.19,41 L58.87,38.79 L58.1,38.79 Z M58.09,35.81 L58.09,37.4 L59.12,37.4 C59.82,37.4 60.09,37.12 60.09,36.7 L60.09,36.51 C60.09,36.08 59.82,35.81 59.13,35.81 L58.09,35.81 Z M66.89,34.34 L72.24,34.34 L72.24,35.89 L68.81,35.89 L68.81,36.89 L71.39,36.89 L71.39,38.35 L68.81,38.35 L68.81,39.45 L72.24,39.45 L72.24,41 L66.89,41 L66.89,34.34 Z M76.8500001,39.28 L78.6600001,39.28 L78.6600001,41 L76.8500001,41 L76.8500001,39.28 Z M86.3400001,34.19 C88.2600001,34.19 89.3100001,35.2 89.3100001,36.61 L89.3100001,36.81 L87.4000001,36.81 L87.4000001,36.6 C87.4000001,36.15 86.9800001,35.77 86.3400001,35.77 C85.4200001,35.77 85.0400001,36.46 85.0400001,37.31 L85.0400001,38.02 C85.0400001,38.82 85.4200001,39.57 86.3400001,39.57 C86.9800001,39.57 87.4000001,39.19 87.4000001,38.74 L87.4000001,38.53 L89.3100001,38.53 L89.3100001,38.73 C89.3100001,40.12 88.2100001,41.15 86.3200001,41.15 C84.2700001,41.15 83.0700001,39.91 83.0700001,38.04 L83.0700001,37.3 C83.0700001,35.43 84.3400001,34.19 86.3400001,34.19 Z M97.0900002,34.18 C99.0600002,34.18 100.4,35.36 100.4,37.24 L100.4,38.1 C100.4,39.98 99.0600002,41.16 97.0900002,41.16 C95.1200002,41.16 93.7800002,39.98 93.7800002,38.1 L93.7800002,37.24 C93.7800002,35.36 95.1200002,34.18 97.0900002,34.18 Z M97.0900002,35.76 C96.3000002,35.76 95.7500002,36.24 95.7500002,37.29 L95.7500002,38.04 C95.7500002,39.1 96.3000002,39.57 97.0900002,39.57 C97.8900002,39.57 98.4200002,39.1 98.4200002,38.04 L98.4200002,37.29 C98.4200002,36.24 97.8900002,35.76 97.0900002,35.76 Z M105.22,34.34 L107.99,34.34 L109.39,38.35 L109.41,38.35 L110.8,34.34 L113.56,34.34 L113.56,41 L111.7,41 L111.7,36.29 L111.68,36.29 L110.02,41 L108.59,41 L106.94,36.29 L106.92,36.29 L106.92,41 L105.22,41 L105.22,34.34 Z" id="ADACORE.COM"></path>
                    <circle id="Oval" cx="110" cy="26" r="4"></circle>
                </g>
            </g>
        </g>
    </g>
</svg>