<svg width="12px" height="12px" viewBox="0 0 12 12" version="1.1" xmlns="http://www.w3.org/2000/svg" xmlns:xlink="http://www.w3.org/1999/xlink">
  <!-- Generator: Sketch 50 (54983) - http://www.bohemiancoding.com/sketch -->
  <title>search</title>
  <desc>Created with Sketch.</desc>
  <defs></defs>
  <g id="Page-1" stroke="none" stroke-width="1" fill="none" fill-rule="evenodd">
    <g id="Learn-Home" transform="translate(-235.000000, -96.000000)" fill="#35363C">
      <path d="M239.319444,97.3194444 C240.199078,96.4398104 241.259253,96 242.5,96 C243.740747,96 244.800922,96.4398104 245.680556,97.3194444 C246.56019,98.1990785 247,99.2592531 247,100.5 C247,101.740747 246.56019,102.800922 245.680556,103.680556 C244.800922,104.56019 243.740747,105 242.5,105 C241.620366,105 240.819448,104.768521 240.097222,104.305556 L236.708333,107.708333 C236.513888,107.902779 236.277779,108 236,108 C235.722221,108 235.486112,107.902779 235.291667,107.708333 C235.097221,107.513888 235,107.277779 235,107 C235,106.722221 235.097221,106.486112 235.291667,106.291667 L238.694444,102.902778 C238.231479,102.180552 238,101.379634 238,100.5 C238,99.2592531 238.43981,98.1990785 239.319444,97.3194444 Z M240.375,102.625 C240.967596,103.208336 241.675922,103.5 242.5,103.5 C243.324078,103.5 244.03009,103.206021 244.618056,102.618056 C245.206021,102.03009 245.5,101.324078 245.5,100.5 C245.5,99.6759218 245.206021,98.9699103 244.618056,98.3819444 C244.03009,97.7939785 243.324078,97.5 242.5,97.5 C241.675922,97.5 240.96991,97.7939785 240.381944,98.3819444 C239.793979,98.9699103 239.5,99.6759218 239.5,100.5 C239.5,101.324078 239.791664,102.032404 240.375,102.625 Z" id="search"></path>
    </g>
  </g>
</svg>